<svg width="63" height="51" viewBox="0 0 63 51" fill="none" xmlns="http://www.w3.org/2000/svg">
<path d="M0 3.45837V42.5904C0 44.5 1.54816 46.0482 3.45788 46.0482H41.9468V39.1843C41.244 38.3719 40.677 37.461 40.2567 36.4676C39.7199 35.1984 39.448 33.8517 39.448 32.4644C39.448 31.0771 39.72 29.7304 40.2567 28.4613C40.7747 27.2365 41.5159 26.1373 42.4596 25.1934C43.4033 24.2498 44.5027 23.5087 45.7274 22.9906C46.9966 22.4538 48.3434 22.1817 49.7306 22.1817C51.1179 22.1817 52.4646 22.4539 53.7338 22.9906C54.9585 23.5086 56.0578 24.2497 57.0016 25.1934C57.9453 26.1371 58.6864 27.2365 59.2045 28.4613C59.7413 29.7304 60.0134 31.0771 60.0134 32.4644C60.0134 33.8517 59.7412 35.1984 59.2045 36.4676C58.7843 37.461 58.2173 38.3719 57.5144 39.1843V46.0482H59.532C61.4415 46.0482 62.9898 44.5 62.9898 42.5904V16.0577H51.0817C48.7937 16.0577 46.9322 14.1963 46.9322 11.9082V0.000488281H3.45788C1.54809 0.000488281 0 1.54865 0 3.45837ZM7.67822 10.8524H42.2142V14.656H7.67822V10.8524ZM7.67822 24.4591H36.9582V26.5338H7.67822V24.4591ZM7.67822 30.9599H24.9462V33.0346H7.67822V30.9599Z" fill="#FF8B00"/>
<path d="M49.0078 0.325386V11.9084C49.0078 13.0542 49.9367 13.9831 51.0825 13.9831H62.667H62.9905L49.0078 0V0.325386Z" fill="#FF8B00"/>
<path d="M55.4395 46.0483V41.0186C54.9033 41.377 54.3336 41.6846 53.7337 41.9383C52.4645 42.4751 51.1178 42.7473 49.7305 42.7473C48.3433 42.7473 46.9965 42.4751 45.7273 41.9383C45.1275 41.6846 44.5577 41.3769 44.0215 41.0186V46.0483V50.8187L49.7304 48.5448L55.4394 50.8187V46.0483H55.4395Z" fill="#FF8B00"/>
<path d="M56.4777 37.14C56.9149 36.5103 57.2665 35.8165 57.5151 35.0754C57.7901 34.2553 57.9393 33.3773 57.9393 32.4645C57.9393 27.9314 54.2644 24.2566 49.7313 24.2566C45.1983 24.2566 41.5234 27.9315 41.5234 32.4646C41.5234 33.3773 41.6727 34.2553 41.9476 35.0755C42.1961 35.8166 42.5477 36.5103 42.9849 37.1401C43.2908 37.5804 43.6384 37.9894 44.0223 38.3613C45.4996 39.7918 47.5125 40.6727 49.7313 40.6727C51.9502 40.6727 53.963 39.7919 55.4404 38.3613C55.8242 37.9894 56.1719 37.5804 56.4777 37.14Z" fill="#FF8B00"/>
</svg>
