<svg width="14" height="17" viewBox="0 0 14 17" fill="none" xmlns="http://www.w3.org/2000/svg">
<g opacity="0.4">
<path d="M1.19336 4.80261L2.00589 14.8608C2.06412 15.5861 2.66665 16.1548 3.3767 16.1548H10.8633C11.5734 16.1548 12.1759 15.5861 12.2341 14.8608L13.0466 4.80261H1.19336ZM4.82592 14.2732C4.58579 14.2732 4.38377 14.0817 4.36854 13.8322L3.90981 6.24318C3.89412 5.98365 4.0863 5.7604 4.33896 5.74431C4.60102 5.72547 4.80935 5.92485 4.82546 6.18438L5.28419 13.7734C5.30043 14.0422 5.09305 14.2732 4.82592 14.2732ZM7.57873 13.8029C7.57873 14.0629 7.37356 14.2732 7.12 14.2732C6.86644 14.2732 6.66127 14.0629 6.66127 13.8029V6.2138C6.66127 5.9538 6.86644 5.7434 7.12 5.7434C7.37356 5.7434 7.57873 5.9538 7.57873 6.2138V13.8029ZM10.3302 6.24321L9.87146 13.8323C9.85639 14.0792 9.65568 14.285 9.38496 14.2723C9.1323 14.2562 8.94012 14.033 8.95581 13.7735L9.41454 6.18442C9.43023 5.92488 9.65198 5.73607 9.90104 5.74434C10.1537 5.76043 10.3459 5.98368 10.3302 6.24321Z" fill="#576A8F"/>
<path d="M13.0827 1.98022H10.3303V1.50982C10.3303 0.73166 9.71302 0.0986328 8.95415 0.0986328H5.28431C4.52545 0.0986328 3.90812 0.73166 3.90812 1.50982V1.98022H1.15574C0.649028 1.98022 0.238281 2.40141 0.238281 2.92101C0.238281 3.44054 0.649028 3.8618 1.15574 3.8618C5.37502 3.8618 8.8636 3.8618 13.0827 3.8618C13.5894 3.8618 14.0002 3.44054 14.0002 2.92101C14.0002 2.40141 13.5894 1.98022 13.0827 1.98022ZM9.41288 1.98022H4.82558V1.50982C4.82558 1.25029 5.03122 1.03942 5.28431 1.03942H8.95415C9.20725 1.03942 9.41288 1.25029 9.41288 1.50982V1.98022Z" fill="#576A8F"/>
</g>
</svg>
