<svg width="14" height="19" viewBox="0 0 14 19" fill="none" xmlns="http://www.w3.org/2000/svg">
<path d="M5.87071 0.0478271C2.95585 0.390323 0.54785 2.68659 0.0871394 5.58607C-0.329848 8.21106 0.785087 10.6061 2.67489 12.0239C3.20361 12.4206 3.53639 13.0173 3.55583 13.6748H9.80416C9.82116 13.0214 10.1491 12.4247 10.6754 12.032C12.3053 10.8142 13.3611 8.87176 13.3611 6.68076C13.3611 2.72383 9.92237 -0.429077 5.87071 0.0478271Z" fill="#AEBBD2"/>
<path d="M3.5625 14.8917V15.0099C3.5625 15.8763 3.91066 16.6536 4.47744 17.2123C5.03613 17.7791 5.82152 18.1272 6.67978 18.1272C8.40441 18.1272 9.79707 16.7346 9.79707 15.0099V14.8917H3.5625Z" fill="#AEBBD2"/>
</svg>
