<svg width="34" height="33" viewBox="0 0 34 33" fill="none" xmlns="http://www.w3.org/2000/svg">
<rect y="0.675049" width="33.0916" height="31.35" rx="15.675" fill="#FF8B00"/>
<path d="M16.5454 9.92886C18.7382 9.92886 19.0372 9.92886 19.9343 9.92886C20.7317 9.92886 21.1303 10.1177 21.4294 10.2121C21.8281 10.401 22.1271 10.4954 22.4261 10.7787C22.7251 11.062 22.9245 11.3453 23.0241 11.723C23.1238 12.0063 23.2235 12.384 23.3232 13.1394C23.3232 13.9893 23.3232 14.1781 23.3232 16.3499C23.3232 18.5218 23.3232 18.7106 23.3232 19.5605C23.3232 20.3159 23.1238 20.6936 23.0241 20.9769C22.8248 21.3546 22.7251 21.6379 22.4261 21.9212C22.1271 22.2044 21.8281 22.3933 21.4294 22.4877C21.1303 22.5822 20.7317 22.6766 19.9343 22.771C19.0372 22.771 18.8379 22.771 16.5454 22.771C14.2529 22.771 14.0535 22.771 13.1565 22.771C12.3591 22.771 11.9604 22.5822 11.6614 22.4877C11.2627 22.2989 10.9636 22.2044 10.6646 21.9212C10.3656 21.6379 10.1663 21.3546 10.0666 20.9769C9.96691 20.6936 9.86724 20.3159 9.76756 19.5605C9.76756 18.7106 9.76756 18.5218 9.76756 16.3499C9.76756 14.1781 9.76756 13.9893 9.76756 13.1394C9.76756 12.384 9.96691 12.0063 10.0666 11.723C10.2659 11.3453 10.3656 11.062 10.6646 10.7787C10.9636 10.4954 11.2627 10.3066 11.6614 10.2121C11.9604 10.1177 12.3591 10.0233 13.1565 9.92886C14.0535 9.92886 14.3525 9.92886 16.5454 9.92886ZM16.5454 8.51245C14.2529 8.51245 14.0535 8.51245 13.1565 8.51245C12.2594 8.51245 11.6614 8.70131 11.163 8.89016C10.6646 9.07902 10.1663 9.3623 9.66789 9.83444C9.16952 10.3066 8.97018 10.6843 8.67116 11.2509C8.47181 11.723 8.37213 12.2896 8.27246 13.1394C8.27246 13.9893 8.27246 14.2725 8.27246 16.3499C8.27246 18.5218 8.27246 18.7106 8.27246 19.5605C8.27246 20.4103 8.47181 20.9769 8.67116 21.449C8.8705 21.9212 9.16952 22.3933 9.66789 22.8654C10.1663 23.3376 10.565 23.5264 11.163 23.8097C11.6614 23.9986 12.2594 24.093 13.1565 24.1874C14.0535 24.1874 14.3525 24.1874 16.5454 24.1874C18.7382 24.1874 19.0372 24.1874 19.9343 24.1874C20.8313 24.1874 21.4294 23.9986 21.9277 23.8097C22.4261 23.6209 22.9245 23.3376 23.4228 22.8654C23.9212 22.3933 24.1206 22.0156 24.4196 21.449C24.6189 20.9769 24.7186 20.4103 24.8183 19.5605C24.8183 18.7106 24.8183 18.4273 24.8183 16.3499C24.8183 14.2725 24.8183 13.9893 24.8183 13.1394C24.8183 12.2896 24.6189 11.723 24.4196 11.2509C24.2202 10.7787 23.9212 10.3066 23.4228 9.83444C22.9245 9.3623 22.5258 9.17344 21.9277 8.89016C21.4294 8.70131 20.8313 8.60688 19.9343 8.51245C19.0372 8.51245 18.8379 8.51245 16.5454 8.51245Z" fill="#011844"/>
<path d="M16.5454 12.2896C14.1532 12.2896 12.2594 14.0837 12.2594 16.3499C12.2594 18.6162 14.1532 20.4103 16.5454 20.4103C18.9375 20.4103 20.8313 18.6162 20.8313 16.3499C20.8313 14.0837 18.9375 12.2896 16.5454 12.2896ZM16.5454 18.9939C15.0503 18.9939 13.7545 17.8608 13.7545 16.3499C13.7545 14.9335 14.9506 13.706 16.5454 13.706C18.0405 13.706 19.3362 14.8391 19.3362 16.3499C19.3362 17.7664 18.0405 18.9939 16.5454 18.9939Z" fill="#011844"/>
<path d="M20.931 13.1394C21.4815 13.1394 21.9277 12.7166 21.9277 12.1951C21.9277 11.6736 21.4815 11.2509 20.931 11.2509C20.3805 11.2509 19.9343 11.6736 19.9343 12.1951C19.9343 12.7166 20.3805 13.1394 20.931 13.1394Z" fill="#011844"/>
</svg>
