<svg width="34" height="33" viewBox="0 0 34 33" fill="none" xmlns="http://www.w3.org/2000/svg">
<rect x="0.908203" y="0.675049" width="33.0916" height="31.35" rx="15.675" fill="#FF8B00"/>
<path d="M24.0724 16.9332V21.2562H21.4014V17.1968C21.4014 16.1952 21.0118 15.5098 20.0658 15.5098C19.3424 15.5098 18.8972 15.9843 18.7303 16.4061C18.6746 16.5642 18.619 16.7751 18.619 17.0387V21.2562H15.9479C15.9479 21.2562 16.0036 14.4028 15.9479 13.7174H18.619V14.7718C18.9529 14.2446 19.6207 13.5065 21.0118 13.5065C22.7369 13.5065 24.0724 14.6136 24.0724 16.9332ZM13.1656 10.0798C12.2752 10.0798 11.6631 10.6597 11.6631 11.3978C11.6631 12.1359 12.2196 12.7158 13.1099 12.7158C14.0559 12.7158 14.6124 12.1359 14.6124 11.3978C14.668 10.607 14.1116 10.0798 13.1656 10.0798ZM11.83 21.2562H14.5011V13.7174H11.83V21.2562Z" fill="#011844"/>
</svg>
