<svg width="19" height="20" viewBox="0 0 19 20" fill="none" xmlns="http://www.w3.org/2000/svg">
<path d="M18.6711 11.8939L16.8777 10.4915C16.9004 10.2752 16.9199 10.0224 16.9199 9.75491C16.9199 9.48743 16.9012 9.23462 16.8777 9.01836L18.6727 7.61517C19.0061 7.35177 19.0971 6.88429 18.8849 6.4949L17.0199 3.26816C16.8207 2.90396 16.3842 2.71697 15.9411 2.88037L13.8249 3.72992C13.4193 3.43725 12.9941 3.19012 12.5543 2.99257L12.2323 0.747951C12.1795 0.321939 11.8087 0 11.3706 0H7.6309C7.19269 0 6.82282 0.321939 6.77076 0.741434L6.44802 2.9942C6.02201 3.18608 5.60335 3.42997 5.17978 3.73156L3.05791 2.87957C2.66033 2.72592 2.18474 2.89825 1.98718 3.26085L0.119802 6.49163C-0.100502 6.86398 -0.00946106 7.34769 0.331189 7.61761L2.1246 9.02C2.09613 9.29396 2.08234 9.53217 2.08234 9.75575C2.08234 9.97933 2.09617 10.2175 2.1246 10.4923L0.32955 11.8955C-0.00378293 12.1597 -0.0940233 12.6272 0.118163 13.0158L1.98314 16.2425C2.18234 16.6059 2.61483 16.7945 3.06195 16.6303L5.17814 15.7807C5.583 16.0726 6.00818 16.3197 6.44802 16.5181L6.76996 18.7619C6.82278 19.1895 7.19269 19.5114 7.6317 19.5114H11.3714C11.8096 19.5114 12.1803 19.1895 12.2323 18.77L12.5551 16.5181C12.9811 16.3254 13.3989 16.0823 13.8233 15.7799L15.9452 16.6319C16.0476 16.6717 16.1541 16.692 16.2639 16.692C16.5793 16.692 16.8695 16.5197 17.0159 16.2514L18.889 13.0076C19.0971 12.6271 19.006 12.1597 18.6711 11.8939ZM9.50072 13.0076C7.70731 13.0076 6.24883 11.5491 6.24883 9.75571C6.24883 7.9623 7.70731 6.50382 9.50072 6.50382C11.2941 6.50382 12.7526 7.9623 12.7526 9.75571C12.7526 11.5491 11.2941 13.0076 9.50072 13.0076Z" fill="white"/>
</svg>
