<svg width="30" height="26" viewBox="0 0 30 26" fill="none" xmlns="http://www.w3.org/2000/svg">
<path d="M28.8462 2.30769H12.6923C12.6923 1.035 11.6573 0 10.3846 0H8.07692C6.80423 0 5.76923 1.035 5.76923 2.30769H1.15385C0.516923 2.30769 0 2.82346 0 3.46154C0 4.09962 0.516923 4.61539 1.15385 4.61539H5.76923C5.76923 5.88808 6.80423 6.92308 8.07692 6.92308H10.3846C11.6573 6.92308 12.6923 5.88808 12.6923 4.61539H28.8462C29.4831 4.61539 30 4.09962 30 3.46154C30 2.82346 29.4831 2.30769 28.8462 2.30769ZM8.07692 4.61539V2.30769H10.3846L10.3858 3.45692C10.3858 3.45923 10.3846 3.46154 10.3846 3.46154C10.3846 3.46154 10.3858 3.46385 10.3858 3.46615V4.61539H8.07692Z" fill="#576A8F"/>
<path d="M28.8462 11.5385H21.9231C21.9231 10.2658 20.8881 9.23083 19.6154 9.23083H17.3077C16.035 9.23083 15 10.2658 15 11.5385H1.15385C0.516923 11.5385 0 12.0543 0 12.6924C0 13.3305 0.516923 13.8462 1.15385 13.8462H15C15 15.1189 16.035 16.1539 17.3077 16.1539H19.6154C20.8881 16.1539 21.9231 15.1189 21.9231 13.8462H28.8462C29.4831 13.8462 30 13.3305 30 12.6924C30 12.0543 29.4831 11.5385 28.8462 11.5385ZM17.3077 13.8462V11.5385H19.6154L19.6165 12.6878C19.6165 12.6901 19.6154 12.6924 19.6154 12.6924C19.6154 12.6924 19.6165 12.6947 19.6165 12.697V13.8462H17.3077Z" fill="#576A8F"/>
<path d="M28.8462 20.7692H12.6923C12.6923 19.4965 11.6573 18.4615 10.3846 18.4615H8.07692C6.80423 18.4615 5.76923 19.4965 5.76923 20.7692H1.15385C0.516923 20.7692 0 21.285 0 21.9231C0 22.5612 0.516923 23.0769 1.15385 23.0769H5.76923C5.76923 24.3496 6.80423 25.3846 8.07692 25.3846H10.3846C11.6573 25.3846 12.6923 24.3496 12.6923 23.0769H28.8462C29.4831 23.0769 30 22.5612 30 21.9231C30 21.285 29.4831 20.7692 28.8462 20.7692ZM8.07692 23.0769V20.7692H10.3846L10.3858 21.9185C10.3858 21.9208 10.3846 21.9231 10.3846 21.9231C10.3846 21.9231 10.3858 21.9254 10.3858 21.9277V23.0769H8.07692Z" fill="#576A8F"/>
</svg>
