<svg width="31" height="25" viewBox="0 0 31 25" fill="none" xmlns="http://www.w3.org/2000/svg">
<path d="M7.37586 19.4473L5.96838 20.8905V1.21046C5.96838 0.914419 5.8537 0.630504 5.64956 0.421172C5.44542 0.21184 5.16854 0.0942383 4.87984 0.0942383C4.59114 0.0942383 4.31427 0.21184 4.11013 0.421172C3.90599 0.630504 3.7913 0.914419 3.7913 1.21046V20.8905L2.38382 19.4473C2.17852 19.2439 1.90355 19.1314 1.61814 19.134C1.33273 19.1365 1.05971 19.2539 0.857888 19.4609C0.656064 19.6678 0.541584 19.9478 0.539104 20.2405C0.536624 20.5331 0.646342 20.8151 0.844628 21.0256L4.11025 24.3743C4.31438 24.5835 4.5912 24.7011 4.87984 24.7011C5.16848 24.7011 5.44531 24.5835 5.64944 24.3743L8.91506 21.0256C9.11334 20.8151 9.22306 20.5331 9.22058 20.2405C9.2181 19.9478 9.10362 19.6678 8.9018 19.4609C8.69997 19.2539 8.42695 19.1365 8.14154 19.134C7.85613 19.1314 7.58116 19.2439 7.37586 19.4473Z" fill="#576A8F"/>
<path d="M13.5885 16.8878H26.651C26.9397 16.8878 27.2166 16.7702 27.4207 16.5609C27.6249 16.3516 27.7395 16.0677 27.7395 15.7716C27.7395 15.4756 27.6249 15.1917 27.4207 14.9823C27.2166 14.773 26.9397 14.6554 26.651 14.6554H13.5885C13.2998 14.6554 13.023 14.773 12.8188 14.9823C12.6147 15.1917 12.5 15.4756 12.5 15.7716C12.5 16.0677 12.6147 16.3516 12.8188 16.5609C13.023 16.7702 13.2998 16.8878 13.5885 16.8878Z" fill="#576A8F"/>
<path d="M29.9166 21.3527H13.5885C13.2998 21.3527 13.023 21.4703 12.8188 21.6796C12.6147 21.8889 12.5 22.1728 12.5 22.4689C12.5 22.7649 12.6147 23.0488 12.8188 23.2582C13.023 23.4675 13.2998 23.5851 13.5885 23.5851H29.9166C30.2053 23.5851 30.4822 23.4675 30.6863 23.2582C30.8905 23.0488 31.0052 22.7649 31.0052 22.4689C31.0052 22.1728 30.8905 21.8889 30.6863 21.6796C30.4822 21.4703 30.2053 21.3527 29.9166 21.3527Z" fill="#576A8F"/>
<path d="M13.5885 10.1904H23.3854C23.6741 10.1904 23.951 10.0728 24.1551 9.86352C24.3592 9.65418 24.4739 9.37027 24.4739 9.07423C24.4739 8.77819 24.3592 8.49427 24.1551 8.28494C23.951 8.07561 23.6741 7.95801 23.3854 7.95801H13.5885C13.2998 7.95801 13.023 8.07561 12.8188 8.28494C12.6147 8.49427 12.5 8.77819 12.5 9.07423C12.5 9.37027 12.6147 9.65418 12.8188 9.86352C13.023 10.0728 13.2998 10.1904 13.5885 10.1904Z" fill="#576A8F"/>
<path d="M13.5885 3.49318H19.0312C19.3199 3.49318 19.5968 3.37558 19.8009 3.16625C20.0051 2.95692 20.1198 2.673 20.1198 2.37696C20.1198 2.08092 20.0051 1.79701 19.8009 1.58768C19.5968 1.37834 19.3199 1.26074 19.0312 1.26074H13.5885C13.2998 1.26074 13.023 1.37834 12.8188 1.58768C12.6147 1.79701 12.5 2.08092 12.5 2.37696C12.5 2.673 12.6147 2.95692 12.8188 3.16625C13.023 3.37558 13.2998 3.49318 13.5885 3.49318Z" fill="#576A8F"/>
</svg>
