<svg width="22" height="19" viewBox="0 0 22 19" fill="none" xmlns="http://www.w3.org/2000/svg">
<path d="M0.767862 4.60717H6.1429L10.7501 0V18.4287L6.1429 13.8215H0.767862C0.307145 13.8215 0 13.5144 0 13.0537V5.37503C0 4.91432 0.307145 4.60717 0.767862 4.60717Z" fill="#AEBBD2"/>
<path d="M19.9649 9.21426C19.9649 11.7482 18.9666 14.0518 17.2773 15.7411L18.3524 16.8161C20.272 14.8964 21.5006 12.2089 21.5006 9.21426C21.5006 6.2196 20.272 3.53208 18.3524 1.61243L17.2773 2.68743C18.9666 4.37673 19.9649 6.68032 19.9649 9.21426Z" fill="#AEBBD2"/>
<path d="M16.202 3.76245L15.127 4.83746C16.202 5.91247 16.893 7.44819 16.893 9.21427C16.893 10.9036 16.202 12.4393 15.127 13.5911L16.202 14.6661C17.5841 13.2839 18.4288 11.3643 18.4288 9.21427C18.4288 7.06426 17.5841 5.1446 16.202 3.76245Z" fill="#AEBBD2"/>
<path d="M13.9754 5.98914L12.9004 7.06414C13.4379 7.60165 13.8218 8.36951 13.8218 9.21416C13.8218 10.0588 13.5147 10.8267 12.9004 11.3642L13.9754 12.4392C14.82 11.5945 15.3575 10.4427 15.3575 9.21416C15.3575 7.98558 14.82 6.757 13.9754 5.98914Z" fill="#AEBBD2"/>
</svg>
