<svg width="17" height="17" viewBox="0 0 17 17" fill="none" xmlns="http://www.w3.org/2000/svg">
<path d="M7.30055 0.80765C7.65045 -0.269216 9.17393 -0.269217 9.52382 0.807649L10.7084 4.45332C10.8649 4.93491 11.3136 5.26097 11.82 5.26097H15.6533C16.7856 5.26097 17.2564 6.70989 16.3403 7.37542L13.2391 9.62857C12.8295 9.92621 12.658 10.4538 12.8145 10.9354L13.9991 14.581C14.349 15.6579 13.1164 16.5534 12.2004 15.8879L9.09921 13.6347C8.68955 13.3371 8.13482 13.3371 7.72516 13.6347L4.62397 15.8879C3.70793 16.5534 2.47541 15.6579 2.8253 14.5811L4.00985 10.9354C4.16633 10.4538 3.99491 9.92621 3.58525 9.62857L0.484054 7.37543C-0.431982 6.70989 0.038797 5.26097 1.17108 5.26097H5.00437C5.51074 5.26097 5.95952 4.93491 6.116 4.45332L7.30055 0.80765Z" fill="#C0CCDD"/>
</svg>
