<svg width="29" height="29" viewBox="0 0 29 29" fill="none" xmlns="http://www.w3.org/2000/svg">
<path d="M12.6435 1.8541C13.2422 0.0114822 15.849 0.0114808 16.4477 1.8541L18.4746 8.0922C18.7423 8.91625 19.5103 9.47417 20.3767 9.47417H26.9358C28.8733 9.47417 29.6788 11.9534 28.1114 13.0922L22.805 16.9476C22.104 17.4568 21.8107 18.3596 22.0784 19.1836L24.1053 25.4217C24.704 27.2643 22.595 28.7966 21.0276 27.6578L15.7212 23.8024C15.0202 23.2932 14.071 23.2932 13.37 23.8024L8.06359 27.6578C6.49616 28.7966 4.3872 27.2644 4.9859 25.4217L7.01278 19.1836C7.28053 18.3596 6.98722 17.4568 6.28624 16.9476L0.9798 13.0922C-0.587628 11.9534 0.217922 9.47417 2.15537 9.47417H8.71449C9.58095 9.47417 10.3489 8.91625 10.6166 8.0922L12.6435 1.8541Z" fill="#FF8B00"/>
</svg>
